<mxfile host="app.diagrams.net" agent="Mozilla/5.0 (Windows NT 10.0; Win64; x64) AppleWebKit/537.36 (KHTML, like Gecko) Chrome/138.0.0.0 Safari/537.36 Edg/138.0.0.0" version="28.1.0">
  <diagram name="Page-1" id="7oGlvXqr1879_1EBVJjx">
    <mxGraphModel dx="1034" dy="570" grid="1" gridSize="10" guides="1" tooltips="1" connect="1" arrows="1" fold="1" page="1" pageScale="1" pageWidth="850" pageHeight="1100" math="0" shadow="0">
      <root>
        <mxCell id="0" />
        <mxCell id="1" parent="0" />
        <mxCell id="i2L2ZSffvxkab_22eNfT-1" value="Context" style="swimlane;fontStyle=1;align=center;verticalAlign=top;childLayout=stackLayout;horizontal=1;startSize=26;horizontalStack=0;resizeParent=1;resizeParentMax=0;resizeLast=0;collapsible=1;marginBottom=0;whiteSpace=wrap;html=1;" vertex="1" parent="1">
          <mxGeometry x="160" y="280" width="240" height="112" as="geometry" />
        </mxCell>
        <mxCell id="i2L2ZSffvxkab_22eNfT-2" value="+ Strategy: Strategy" style="text;strokeColor=none;fillColor=none;align=left;verticalAlign=top;spacingLeft=4;spacingRight=4;overflow=hidden;rotatable=0;points=[[0,0.5],[1,0.5]];portConstraint=eastwest;whiteSpace=wrap;html=1;" vertex="1" parent="i2L2ZSffvxkab_22eNfT-1">
          <mxGeometry y="26" width="240" height="26" as="geometry" />
        </mxCell>
        <mxCell id="i2L2ZSffvxkab_22eNfT-3" value="" style="line;strokeWidth=1;fillColor=none;align=left;verticalAlign=middle;spacingTop=-1;spacingLeft=3;spacingRight=3;rotatable=0;labelPosition=right;points=[];portConstraint=eastwest;strokeColor=inherit;" vertex="1" parent="i2L2ZSffvxkab_22eNfT-1">
          <mxGeometry y="52" width="240" height="8" as="geometry" />
        </mxCell>
        <mxCell id="i2L2ZSffvxkab_22eNfT-4" value="+ setStrategy(type): void" style="text;strokeColor=none;fillColor=none;align=left;verticalAlign=top;spacingLeft=4;spacingRight=4;overflow=hidden;rotatable=0;points=[[0,0.5],[1,0.5]];portConstraint=eastwest;whiteSpace=wrap;html=1;" vertex="1" parent="i2L2ZSffvxkab_22eNfT-1">
          <mxGeometry y="60" width="240" height="26" as="geometry" />
        </mxCell>
        <mxCell id="i2L2ZSffvxkab_22eNfT-5" value="+ executeStrategy(type): void" style="text;strokeColor=none;fillColor=none;align=left;verticalAlign=top;spacingLeft=4;spacingRight=4;overflow=hidden;rotatable=0;points=[[0,0.5],[1,0.5]];portConstraint=eastwest;whiteSpace=wrap;html=1;" vertex="1" parent="i2L2ZSffvxkab_22eNfT-1">
          <mxGeometry y="86" width="240" height="26" as="geometry" />
        </mxCell>
        <mxCell id="i2L2ZSffvxkab_22eNfT-6" value="Strategy" style="swimlane;fontStyle=1;align=center;verticalAlign=top;childLayout=stackLayout;horizontal=1;startSize=26;horizontalStack=0;resizeParent=1;resizeParentMax=0;resizeLast=0;collapsible=1;marginBottom=0;whiteSpace=wrap;html=1;" vertex="1" parent="1">
          <mxGeometry x="160" y="160" width="240" height="60" as="geometry" />
        </mxCell>
        <mxCell id="i2L2ZSffvxkab_22eNfT-8" value="" style="line;strokeWidth=1;fillColor=none;align=left;verticalAlign=middle;spacingTop=-1;spacingLeft=3;spacingRight=3;rotatable=0;labelPosition=right;points=[];portConstraint=eastwest;strokeColor=inherit;" vertex="1" parent="i2L2ZSffvxkab_22eNfT-6">
          <mxGeometry y="26" width="240" height="8" as="geometry" />
        </mxCell>
        <mxCell id="i2L2ZSffvxkab_22eNfT-9" value="+ execute(): type" style="text;strokeColor=none;fillColor=none;align=left;verticalAlign=top;spacingLeft=4;spacingRight=4;overflow=hidden;rotatable=0;points=[[0,0.5],[1,0.5]];portConstraint=eastwest;whiteSpace=wrap;html=1;" vertex="1" parent="i2L2ZSffvxkab_22eNfT-6">
          <mxGeometry y="34" width="240" height="26" as="geometry" />
        </mxCell>
        <mxCell id="i2L2ZSffvxkab_22eNfT-10" value="Strategy A" style="swimlane;fontStyle=1;align=center;verticalAlign=top;childLayout=stackLayout;horizontal=1;startSize=26;horizontalStack=0;resizeParent=1;resizeParentMax=0;resizeLast=0;collapsible=1;marginBottom=0;whiteSpace=wrap;html=1;" vertex="1" parent="1">
          <mxGeometry x="520" y="160" width="240" height="60" as="geometry" />
        </mxCell>
        <mxCell id="i2L2ZSffvxkab_22eNfT-11" value="" style="line;strokeWidth=1;fillColor=none;align=left;verticalAlign=middle;spacingTop=-1;spacingLeft=3;spacingRight=3;rotatable=0;labelPosition=right;points=[];portConstraint=eastwest;strokeColor=inherit;" vertex="1" parent="i2L2ZSffvxkab_22eNfT-10">
          <mxGeometry y="26" width="240" height="8" as="geometry" />
        </mxCell>
        <mxCell id="i2L2ZSffvxkab_22eNfT-12" value="+ execute(): type" style="text;strokeColor=none;fillColor=none;align=left;verticalAlign=top;spacingLeft=4;spacingRight=4;overflow=hidden;rotatable=0;points=[[0,0.5],[1,0.5]];portConstraint=eastwest;whiteSpace=wrap;html=1;" vertex="1" parent="i2L2ZSffvxkab_22eNfT-10">
          <mxGeometry y="34" width="240" height="26" as="geometry" />
        </mxCell>
        <mxCell id="i2L2ZSffvxkab_22eNfT-13" value="Strategy B" style="swimlane;fontStyle=1;align=center;verticalAlign=top;childLayout=stackLayout;horizontal=1;startSize=26;horizontalStack=0;resizeParent=1;resizeParentMax=0;resizeLast=0;collapsible=1;marginBottom=0;whiteSpace=wrap;html=1;" vertex="1" parent="1">
          <mxGeometry x="520" y="280" width="240" height="60" as="geometry" />
        </mxCell>
        <mxCell id="i2L2ZSffvxkab_22eNfT-14" value="" style="line;strokeWidth=1;fillColor=none;align=left;verticalAlign=middle;spacingTop=-1;spacingLeft=3;spacingRight=3;rotatable=0;labelPosition=right;points=[];portConstraint=eastwest;strokeColor=inherit;" vertex="1" parent="i2L2ZSffvxkab_22eNfT-13">
          <mxGeometry y="26" width="240" height="8" as="geometry" />
        </mxCell>
        <mxCell id="i2L2ZSffvxkab_22eNfT-15" value="+ execute(): type" style="text;strokeColor=none;fillColor=none;align=left;verticalAlign=top;spacingLeft=4;spacingRight=4;overflow=hidden;rotatable=0;points=[[0,0.5],[1,0.5]];portConstraint=eastwest;whiteSpace=wrap;html=1;" vertex="1" parent="i2L2ZSffvxkab_22eNfT-13">
          <mxGeometry y="34" width="240" height="26" as="geometry" />
        </mxCell>
        <mxCell id="i2L2ZSffvxkab_22eNfT-16" value="" style="endArrow=diamondThin;endFill=1;endSize=24;html=1;rounded=0;entryX=0.5;entryY=0;entryDx=0;entryDy=0;exitX=0.498;exitY=1.1;exitDx=0;exitDy=0;exitPerimeter=0;" edge="1" parent="1" source="i2L2ZSffvxkab_22eNfT-9" target="i2L2ZSffvxkab_22eNfT-1">
          <mxGeometry width="160" relative="1" as="geometry">
            <mxPoint x="280" y="260" as="sourcePoint" />
            <mxPoint x="510" y="400" as="targetPoint" />
          </mxGeometry>
        </mxCell>
        <mxCell id="i2L2ZSffvxkab_22eNfT-17" value="" style="endArrow=block;dashed=1;endFill=0;endSize=12;html=1;rounded=0;entryX=0.005;entryY=-0.062;entryDx=0;entryDy=0;entryPerimeter=0;exitX=1;exitY=0.5;exitDx=0;exitDy=0;" edge="1" parent="1" source="i2L2ZSffvxkab_22eNfT-6" target="i2L2ZSffvxkab_22eNfT-12">
          <mxGeometry width="160" relative="1" as="geometry">
            <mxPoint x="400" y="380" as="sourcePoint" />
            <mxPoint x="560" y="380" as="targetPoint" />
          </mxGeometry>
        </mxCell>
        <mxCell id="i2L2ZSffvxkab_22eNfT-18" value="" style="endArrow=block;dashed=1;endFill=0;endSize=12;html=1;rounded=0;entryX=0;entryY=0.5;entryDx=0;entryDy=0;exitX=1;exitY=0.5;exitDx=0;exitDy=0;" edge="1" parent="1" source="i2L2ZSffvxkab_22eNfT-9" target="i2L2ZSffvxkab_22eNfT-13">
          <mxGeometry width="160" relative="1" as="geometry">
            <mxPoint x="400" y="400" as="sourcePoint" />
            <mxPoint x="560" y="400" as="targetPoint" />
          </mxGeometry>
        </mxCell>
        <mxCell id="i2L2ZSffvxkab_22eNfT-19" value="What is the Strategy Design Pattern?&#xa;&#xa;The Strategy Pattern is a behavioral design pattern that enables selecting an algorithm&#39;s behavior at runtime.&#xa;&#xa;Intent:&#xa;Define a family of algorithms, encapsulate each one, and make them interchangeable. Strategy lets the algorithm vary independently from the clients that use it." style="text;whiteSpace=wrap;fontSize=14;" vertex="1" parent="1">
          <mxGeometry x="40" y="440" width="760" height="120" as="geometry" />
        </mxCell>
        <mxCell id="i2L2ZSffvxkab_22eNfT-20" value="Real-World Analogy &#xa;Imagine a navigation app like Google Maps. It can calculate routes based on different strategies:&#xa;&#xa;- Fastest route &#xa;- Shortest distance &#xa;- Avoid tolls &#xa;- Scenic route&#xa;&#xa;Each of these routing algorithms is a strategy, and the app allows the user to switch between them dynamically." style="text;whiteSpace=wrap;fontSize=14;" vertex="1" parent="1">
          <mxGeometry x="40" y="600" width="800" height="160" as="geometry" />
        </mxCell>
        <mxCell id="i2L2ZSffvxkab_22eNfT-21" value="Explanation of Components &#xa;&#xa;.Context&#xa;    . Maintains a reference to a Strategy object.&#xa;    . Allows changing the Strategy at runtime.&#xa;&#xa;.Strategy (Interface or Abstract Class):&#xa;    . Declares a method that all supported algorithms will implement.&#xa;&#xa;.ConcreteStrategyA/B/...&#xa;    . Implement different variations of the algorithm." style="text;whiteSpace=wrap;fontSize=14;fontStyle=0" vertex="1" parent="1">
          <mxGeometry x="40" y="800" width="805" height="210" as="geometry" />
        </mxCell>
        <mxCell id="i2L2ZSffvxkab_22eNfT-22" value="When to Use Strategy Pattern&#xa;&#xa;-When you have many related classes that differ only in their behavior.&#xa;-When you need different variants of an algorithm.&#xa;-When an algorithm uses data that clients shouldn&#39;t know about.&#xa;-To avoid using conditional statements to choose behavior." style="text;whiteSpace=wrap;fontSize=14;" vertex="1" parent="1">
          <mxGeometry x="40" y="1040" width="760" height="120" as="geometry" />
        </mxCell>
        <mxCell id="i2L2ZSffvxkab_22eNfT-23" value="&lt;font style=&quot;font-size: 14px;&quot;&gt;Domain Use Case&lt;/font&gt;" style="text;html=1;align=left;verticalAlign=middle;whiteSpace=wrap;rounded=0;" vertex="1" parent="1">
          <mxGeometry x="40" y="1170" width="760" height="30" as="geometry" />
        </mxCell>
        <mxCell id="i2L2ZSffvxkab_22eNfT-24" value="" style="shape=table;startSize=0;container=1;collapsible=0;childLayout=tableLayout;fontSize=14;" vertex="1" parent="1">
          <mxGeometry x="40" y="1200" width="760" height="200" as="geometry" />
        </mxCell>
        <mxCell id="i2L2ZSffvxkab_22eNfT-25" value="" style="shape=tableRow;horizontal=0;startSize=0;swimlaneHead=0;swimlaneBody=0;strokeColor=inherit;top=0;left=0;bottom=0;right=0;collapsible=0;dropTarget=0;fillColor=none;points=[[0,0.5],[1,0.5]];portConstraint=eastwest;" vertex="1" parent="i2L2ZSffvxkab_22eNfT-24">
          <mxGeometry width="760" height="40" as="geometry" />
        </mxCell>
        <mxCell id="i2L2ZSffvxkab_22eNfT-26" value="&lt;font style=&quot;font-size: 14px;&quot;&gt;UI Themes&lt;/font&gt;" style="shape=partialRectangle;html=1;whiteSpace=wrap;connectable=0;strokeColor=inherit;overflow=hidden;fillColor=none;top=0;left=0;bottom=0;right=0;pointerEvents=1;" vertex="1" parent="i2L2ZSffvxkab_22eNfT-25">
          <mxGeometry width="380" height="40" as="geometry">
            <mxRectangle width="380" height="40" as="alternateBounds" />
          </mxGeometry>
        </mxCell>
        <mxCell id="i2L2ZSffvxkab_22eNfT-27" value="&lt;font style=&quot;font-size: 14px;&quot;&gt;Switching between light, dark, and high-contrast themes.&lt;/font&gt;" style="shape=partialRectangle;html=1;whiteSpace=wrap;connectable=0;strokeColor=inherit;overflow=hidden;fillColor=none;top=0;left=0;bottom=0;right=0;pointerEvents=1;" vertex="1" parent="i2L2ZSffvxkab_22eNfT-25">
          <mxGeometry x="380" width="380" height="40" as="geometry">
            <mxRectangle width="380" height="40" as="alternateBounds" />
          </mxGeometry>
        </mxCell>
        <mxCell id="i2L2ZSffvxkab_22eNfT-28" value="" style="shape=tableRow;horizontal=0;startSize=0;swimlaneHead=0;swimlaneBody=0;strokeColor=inherit;top=0;left=0;bottom=0;right=0;collapsible=0;dropTarget=0;fillColor=none;points=[[0,0.5],[1,0.5]];portConstraint=eastwest;" vertex="1" parent="i2L2ZSffvxkab_22eNfT-24">
          <mxGeometry y="40" width="760" height="40" as="geometry" />
        </mxCell>
        <mxCell id="i2L2ZSffvxkab_22eNfT-29" value="&lt;font style=&quot;font-size: 14px;&quot;&gt;Sorting Algorithms&lt;/font&gt;" style="shape=partialRectangle;html=1;whiteSpace=wrap;connectable=0;strokeColor=inherit;overflow=hidden;fillColor=none;top=0;left=0;bottom=0;right=0;pointerEvents=1;" vertex="1" parent="i2L2ZSffvxkab_22eNfT-28">
          <mxGeometry width="380" height="40" as="geometry">
            <mxRectangle width="380" height="40" as="alternateBounds" />
          </mxGeometry>
        </mxCell>
        <mxCell id="i2L2ZSffvxkab_22eNfT-30" value="&lt;font style=&quot;font-size: 14px;&quot;&gt;Plug in different sorting methods (QuickSort, MergeSort).&lt;/font&gt;" style="shape=partialRectangle;html=1;whiteSpace=wrap;connectable=0;strokeColor=inherit;overflow=hidden;fillColor=none;top=0;left=0;bottom=0;right=0;pointerEvents=1;" vertex="1" parent="i2L2ZSffvxkab_22eNfT-28">
          <mxGeometry x="380" width="380" height="40" as="geometry">
            <mxRectangle width="380" height="40" as="alternateBounds" />
          </mxGeometry>
        </mxCell>
        <mxCell id="i2L2ZSffvxkab_22eNfT-31" value="" style="shape=tableRow;horizontal=0;startSize=0;swimlaneHead=0;swimlaneBody=0;strokeColor=inherit;top=0;left=0;bottom=0;right=0;collapsible=0;dropTarget=0;fillColor=none;points=[[0,0.5],[1,0.5]];portConstraint=eastwest;" vertex="1" parent="i2L2ZSffvxkab_22eNfT-24">
          <mxGeometry y="80" width="760" height="40" as="geometry" />
        </mxCell>
        <mxCell id="i2L2ZSffvxkab_22eNfT-32" value="&lt;font style=&quot;font-size: 14px;&quot;&gt;Authentication&lt;/font&gt;" style="shape=partialRectangle;html=1;whiteSpace=wrap;connectable=0;strokeColor=inherit;overflow=hidden;fillColor=none;top=0;left=0;bottom=0;right=0;pointerEvents=1;" vertex="1" parent="i2L2ZSffvxkab_22eNfT-31">
          <mxGeometry width="380" height="40" as="geometry">
            <mxRectangle width="380" height="40" as="alternateBounds" />
          </mxGeometry>
        </mxCell>
        <mxCell id="i2L2ZSffvxkab_22eNfT-33" value="&lt;font style=&quot;font-size: 14px;&quot;&gt;Choose between OAuth, JWT, or SSO strategies.&lt;/font&gt;" style="shape=partialRectangle;html=1;whiteSpace=wrap;connectable=0;strokeColor=inherit;overflow=hidden;fillColor=none;top=0;left=0;bottom=0;right=0;pointerEvents=1;" vertex="1" parent="i2L2ZSffvxkab_22eNfT-31">
          <mxGeometry x="380" width="380" height="40" as="geometry">
            <mxRectangle width="380" height="40" as="alternateBounds" />
          </mxGeometry>
        </mxCell>
        <mxCell id="i2L2ZSffvxkab_22eNfT-34" value="" style="shape=tableRow;horizontal=0;startSize=0;swimlaneHead=0;swimlaneBody=0;strokeColor=inherit;top=0;left=0;bottom=0;right=0;collapsible=0;dropTarget=0;fillColor=none;points=[[0,0.5],[1,0.5]];portConstraint=eastwest;fontSize=14;" vertex="1" parent="i2L2ZSffvxkab_22eNfT-24">
          <mxGeometry y="120" width="760" height="40" as="geometry" />
        </mxCell>
        <mxCell id="i2L2ZSffvxkab_22eNfT-35" value="&lt;font style=&quot;font-size: 14px;&quot;&gt;Compression&lt;/font&gt;" style="shape=partialRectangle;html=1;whiteSpace=wrap;connectable=0;strokeColor=inherit;overflow=hidden;fillColor=none;top=0;left=0;bottom=0;right=0;pointerEvents=1;" vertex="1" parent="i2L2ZSffvxkab_22eNfT-34">
          <mxGeometry width="380" height="40" as="geometry">
            <mxRectangle width="380" height="40" as="alternateBounds" />
          </mxGeometry>
        </mxCell>
        <mxCell id="i2L2ZSffvxkab_22eNfT-36" value="&lt;font style=&quot;font-size: 14px;&quot;&gt;Different file compression techniques (ZIP, RAR, TAR).&lt;/font&gt;" style="shape=partialRectangle;html=1;whiteSpace=wrap;connectable=0;strokeColor=inherit;overflow=hidden;fillColor=none;top=0;left=0;bottom=0;right=0;pointerEvents=1;" vertex="1" parent="i2L2ZSffvxkab_22eNfT-34">
          <mxGeometry x="380" width="380" height="40" as="geometry">
            <mxRectangle width="380" height="40" as="alternateBounds" />
          </mxGeometry>
        </mxCell>
        <mxCell id="i2L2ZSffvxkab_22eNfT-37" value="" style="shape=tableRow;horizontal=0;startSize=0;swimlaneHead=0;swimlaneBody=0;strokeColor=inherit;top=0;left=0;bottom=0;right=0;collapsible=0;dropTarget=0;fillColor=none;points=[[0,0.5],[1,0.5]];portConstraint=eastwest;" vertex="1" parent="i2L2ZSffvxkab_22eNfT-24">
          <mxGeometry y="160" width="760" height="40" as="geometry" />
        </mxCell>
        <mxCell id="i2L2ZSffvxkab_22eNfT-38" value="&lt;font style=&quot;font-size: 14px;&quot;&gt;Game Development&lt;/font&gt;" style="shape=partialRectangle;html=1;whiteSpace=wrap;connectable=0;strokeColor=inherit;overflow=hidden;fillColor=none;top=0;left=0;bottom=0;right=0;pointerEvents=1;" vertex="1" parent="i2L2ZSffvxkab_22eNfT-37">
          <mxGeometry width="380" height="40" as="geometry">
            <mxRectangle width="380" height="40" as="alternateBounds" />
          </mxGeometry>
        </mxCell>
        <mxCell id="i2L2ZSffvxkab_22eNfT-39" value="&lt;font style=&quot;font-size: 14px;&quot;&gt;Varying character movement behavior (e.g., flying, walking, swimming).&lt;/font&gt;" style="shape=partialRectangle;html=1;whiteSpace=wrap;connectable=0;strokeColor=inherit;overflow=hidden;fillColor=none;top=0;left=0;bottom=0;right=0;pointerEvents=1;" vertex="1" parent="i2L2ZSffvxkab_22eNfT-37">
          <mxGeometry x="380" width="380" height="40" as="geometry">
            <mxRectangle width="380" height="40" as="alternateBounds" />
          </mxGeometry>
        </mxCell>
        <mxCell id="i2L2ZSffvxkab_22eNfT-40" value="&lt;font style=&quot;font-size: 14px;&quot;&gt;Pros and Cons&lt;/font&gt;&lt;div&gt;&lt;font style=&quot;font-size: 14px;&quot;&gt;&lt;br&gt;&lt;/font&gt;&lt;/div&gt;&lt;div&gt;&lt;font style=&quot;font-size: 14px;&quot;&gt;Pros:&lt;/font&gt;&lt;/div&gt;&lt;div&gt;&lt;ul&gt;&lt;li&gt;&lt;font style=&quot;font-size: 14px;&quot;&gt;Avoids long &lt;code data-end=&quot;4250&quot; data-start=&quot;4241&quot;&gt;if-else&lt;/code&gt; or &lt;code data-end=&quot;4267&quot; data-start=&quot;4254&quot;&gt;switch-case&lt;/code&gt; blocks.&lt;/font&gt;&lt;/li&gt;&lt;li&gt;&lt;font style=&quot;font-size: 14px;&quot;&gt;Open/Closed Principle: New strategies can be added without modifying the context.&lt;/font&gt;&lt;/li&gt;&lt;li&gt;&lt;font style=&quot;font-size: 14px;&quot;&gt;Cleaner code, better separation of concerns.&lt;/font&gt;&lt;/li&gt;&lt;/ul&gt;&lt;div&gt;&lt;span style=&quot;font-size: 14px;&quot;&gt;Cons:&lt;/span&gt;&lt;/div&gt;&lt;/div&gt;&lt;div&gt;&lt;ul&gt;&lt;li&gt;&lt;span style=&quot;font-size: 14px;&quot;&gt;Increased number of classes.&lt;/span&gt;&lt;/li&gt;&lt;li&gt;&lt;span style=&quot;font-size: 14px;&quot;&gt;Clients must understand the differences between strategies.&lt;/span&gt;&lt;/li&gt;&lt;/ul&gt;&lt;/div&gt;" style="text;whiteSpace=wrap;html=1;" vertex="1" parent="1">
          <mxGeometry x="40" y="1450" width="760" height="270" as="geometry" />
        </mxCell>
      </root>
    </mxGraphModel>
  </diagram>
</mxfile>
